<svg xmlns="http://www.w3.org/2000/svg" version="1.1" xmlns:xlink="http://www.w3.org/1999/xlink" xmlns:svgjs="http://svgjs.dev/svgjs" width="1440" height="560" preserveAspectRatio="none" viewBox="0 0 1440 560"><g mask="url(&quot;#SvgjsMask2128&quot;)" fill="none"><rect width="1440" height="560" x="0" y="0" fill="url(&quot;#SvgjsLinearGradient2129&quot;)"></rect><g mask="url(&quot;#SvgjsMask2131&quot;)"><path d="M66.5 275.5L85.5 294.5M161.5 275.5L180.5 275.5L199.5 275.5M123.5 275.5L142.5 294.5L161.5 294.5L180.5 294.5L199.5 294.5M-9.5 275.5L9.5 275.5L28.5 275.5L47.5 275.5L66.5 275.5L85.5 275.5L104.5 275.5L123.5 275.5L142.5 275.5L161.5 275.5L180.5 256.5" stroke="url(&quot;#SvgjsLinearGradient2130&quot;)" stroke-width="3.17"></path><path d="M175.75 256.5 a4.75 4.75 0 1 0 9.5 0 a4.75 4.75 0 1 0 -9.5 0zM80.75 294.5 a4.75 4.75 0 1 0 9.5 0 a4.75 4.75 0 1 0 -9.5 0zM194.75 275.5 a4.75 4.75 0 1 0 9.5 0 a4.75 4.75 0 1 0 -9.5 0zM194.75 294.5 a4.75 4.75 0 1 0 9.5 0 a4.75 4.75 0 1 0 -9.5 0z" fill="url(&quot;#SvgjsLinearGradient2130&quot;)"></path><path d="M-9.5 294.5L9.5 294.5L28.5 294.5" stroke="url(&quot;#SvgjsLinearGradient2130&quot;)" stroke-width="3.17"></path><path d="M23.75 294.5 a4.75 4.75 0 1 0 9.5 0 a4.75 4.75 0 1 0 -9.5 0z" fill="url(&quot;#SvgjsLinearGradient2130&quot;)"></path><path d="M180.5 237.5L199.5 218.5L218.5 218.5M218.5 237.5L237.5 256.5M-9.5 256.5L9.5 256.5L28.5 256.5L47.5 256.5L66.5 256.5L85.5 256.5L104.5 256.5L123.5 256.5L142.5 256.5L161.5 256.5L180.5 237.5L199.5 237.5L218.5 237.5L237.5 237.5" stroke="url(&quot;#SvgjsLinearGradient2130&quot;)" stroke-width="3.17"></path><path d="M232.75 237.5 a4.75 4.75 0 1 0 9.5 0 a4.75 4.75 0 1 0 -9.5 0zM213.75 218.5 a4.75 4.75 0 1 0 9.5 0 a4.75 4.75 0 1 0 -9.5 0zM232.75 256.5 a4.75 4.75 0 1 0 9.5 0 a4.75 4.75 0 1 0 -9.5 0z" fill="url(&quot;#SvgjsLinearGradient2130&quot;)"></path><path d="M66.5 313.5L85.5 332.5M237.5 313.5L256.5 332.5L275.5 332.5L294.5 332.5L313.5 332.5M123.5 332.5L142.5 351.5M256.5 313.5L275.5 294.5L294.5 294.5L313.5 275.5M-9.5 313.5L9.5 313.5L28.5 313.5L47.5 313.5L66.5 313.5L85.5 313.5L104.5 332.5L123.5 332.5L142.5 332.5L161.5 313.5L180.5 313.5L199.5 313.5L218.5 313.5L237.5 313.5L256.5 313.5L275.5 313.5" stroke="url(&quot;#SvgjsLinearGradient2130&quot;)" stroke-width="3.17"></path><path d="M270.75 313.5 a4.75 4.75 0 1 0 9.5 0 a4.75 4.75 0 1 0 -9.5 0zM80.75 332.5 a4.75 4.75 0 1 0 9.5 0 a4.75 4.75 0 1 0 -9.5 0zM308.75 332.5 a4.75 4.75 0 1 0 9.5 0 a4.75 4.75 0 1 0 -9.5 0zM137.75 351.5 a4.75 4.75 0 1 0 9.5 0 a4.75 4.75 0 1 0 -9.5 0zM308.75 275.5 a4.75 4.75 0 1 0 9.5 0 a4.75 4.75 0 1 0 -9.5 0z" fill="url(&quot;#SvgjsLinearGradient2130&quot;)"></path><path d="M28.5 237.5L47.5 218.5L66.5 218.5M9.5 237.5L28.5 218.5M-9.5 237.5L9.5 237.5L28.5 237.5L47.5 237.5" stroke="url(&quot;#SvgjsLinearGradient2130&quot;)" stroke-width="3.17"></path><path d="M42.75 237.5 a4.75 4.75 0 1 0 9.5 0 a4.75 4.75 0 1 0 -9.5 0zM61.75 218.5 a4.75 4.75 0 1 0 9.5 0 a4.75 4.75 0 1 0 -9.5 0zM23.75 218.5 a4.75 4.75 0 1 0 9.5 0 a4.75 4.75 0 1 0 -9.5 0z" fill="url(&quot;#SvgjsLinearGradient2130&quot;)"></path><path d="M9.5 332.5L28.5 351.5M47.5 351.5L66.5 332.5M28.5 332.5L47.5 332.5M-9.5 332.5L9.5 332.5L28.5 332.5L47.5 351.5L66.5 351.5" stroke="url(&quot;#SvgjsLinearGradient2130&quot;)" stroke-width="3.17"></path><path d="M61.75 351.5 a4.75 4.75 0 1 0 9.5 0 a4.75 4.75 0 1 0 -9.5 0zM23.75 351.5 a4.75 4.75 0 1 0 9.5 0 a4.75 4.75 0 1 0 -9.5 0zM61.75 332.5 a4.75 4.75 0 1 0 9.5 0 a4.75 4.75 0 1 0 -9.5 0zM42.75 332.5 a4.75 4.75 0 1 0 9.5 0 a4.75 4.75 0 1 0 -9.5 0z" fill="url(&quot;#SvgjsLinearGradient2130&quot;)"></path><path d="M85.5 199.5L104.5 218.5L123.5 218.5L142.5 218.5M-9.5 199.5L9.5 199.5L28.5 199.5L47.5 199.5L66.5 199.5L85.5 199.5L104.5 199.5L123.5 199.5L142.5 199.5L161.5 199.5" stroke="url(&quot;#SvgjsLinearGradient2130&quot;)" stroke-width="3.17"></path><path d="M156.75 199.5 a4.75 4.75 0 1 0 9.5 0 a4.75 4.75 0 1 0 -9.5 0zM137.75 218.5 a4.75 4.75 0 1 0 9.5 0 a4.75 4.75 0 1 0 -9.5 0z" fill="url(&quot;#SvgjsLinearGradient2130&quot;)"></path><path d="M123.5 370.5L142.5 389.5L161.5 389.5L180.5 389.5L199.5 389.5M161.5 370.5L180.5 351.5L199.5 351.5L218.5 351.5M104.5 370.5L123.5 389.5M-9.5 370.5L9.5 370.5L28.5 370.5L47.5 370.5L66.5 370.5L85.5 370.5L104.5 370.5L123.5 370.5L142.5 370.5L161.5 370.5L180.5 370.5" stroke="url(&quot;#SvgjsLinearGradient2130&quot;)" stroke-width="3.17"></path><path d="M175.75 370.5 a4.75 4.75 0 1 0 9.5 0 a4.75 4.75 0 1 0 -9.5 0zM194.75 389.5 a4.75 4.75 0 1 0 9.5 0 a4.75 4.75 0 1 0 -9.5 0zM213.75 351.5 a4.75 4.75 0 1 0 9.5 0 a4.75 4.75 0 1 0 -9.5 0zM118.75 389.5 a4.75 4.75 0 1 0 9.5 0 a4.75 4.75 0 1 0 -9.5 0z" fill="url(&quot;#SvgjsLinearGradient2130&quot;)"></path><path d="M199.5 180.5L218.5 180.5L237.5 180.5M66.5 180.5L85.5 161.5L104.5 161.5L123.5 161.5M47.5 180.5L66.5 161.5M-9.5 180.5L9.5 180.5L28.5 180.5L47.5 180.5L66.5 180.5L85.5 180.5L104.5 180.5L123.5 180.5L142.5 180.5L161.5 180.5L180.5 180.5L199.5 180.5L218.5 199.5L237.5 218.5" stroke="url(&quot;#SvgjsLinearGradient2130&quot;)" stroke-width="3.17"></path><path d="M232.75 218.5 a4.75 4.75 0 1 0 9.5 0 a4.75 4.75 0 1 0 -9.5 0zM232.75 180.5 a4.75 4.75 0 1 0 9.5 0 a4.75 4.75 0 1 0 -9.5 0zM118.75 161.5 a4.75 4.75 0 1 0 9.5 0 a4.75 4.75 0 1 0 -9.5 0zM61.75 161.5 a4.75 4.75 0 1 0 9.5 0 a4.75 4.75 0 1 0 -9.5 0z" fill="url(&quot;#SvgjsLinearGradient2130&quot;)"></path><path d="M66.5 389.5L85.5 389.5M-9.5 389.5L9.5 389.5L28.5 389.5L47.5 389.5L66.5 389.5L85.5 408.5" stroke="url(&quot;#SvgjsLinearGradient2130&quot;)" stroke-width="3.17"></path><path d="M80.75 408.5 a4.75 4.75 0 1 0 9.5 0 a4.75 4.75 0 1 0 -9.5 0zM80.75 389.5 a4.75 4.75 0 1 0 9.5 0 a4.75 4.75 0 1 0 -9.5 0z" fill="url(&quot;#SvgjsLinearGradient2130&quot;)"></path><path d="M9.5 408.5L28.5 427.5M85.5 427.5L104.5 446.5M47.5 408.5L66.5 427.5L85.5 446.5L104.5 465.5M-9.5 408.5L9.5 408.5L28.5 408.5L47.5 408.5L66.5 408.5L85.5 427.5L104.5 427.5L123.5 427.5" stroke="url(&quot;#SvgjsLinearGradient2130&quot;)" stroke-width="3.17"></path><path d="M118.75 427.5 a4.75 4.75 0 1 0 9.5 0 a4.75 4.75 0 1 0 -9.5 0zM23.75 427.5 a4.75 4.75 0 1 0 9.5 0 a4.75 4.75 0 1 0 -9.5 0zM99.75 446.5 a4.75 4.75 0 1 0 9.5 0 a4.75 4.75 0 1 0 -9.5 0zM99.75 465.5 a4.75 4.75 0 1 0 9.5 0 a4.75 4.75 0 1 0 -9.5 0z" fill="url(&quot;#SvgjsLinearGradient2130&quot;)"></path><path d="M104.5 123.5L123.5 104.5L142.5 104.5L161.5 104.5M28.5 142.5L47.5 161.5M180.5 123.5L199.5 104.5L218.5 104.5L237.5 104.5L256.5 104.5M-9.5 142.5L9.5 142.5L28.5 142.5L47.5 142.5L66.5 142.5L85.5 142.5L104.5 123.5L123.5 123.5L142.5 123.5L161.5 123.5L180.5 123.5L199.5 123.5" stroke="url(&quot;#SvgjsLinearGradient2130&quot;)" stroke-width="3.17"></path><path d="M194.75 123.5 a4.75 4.75 0 1 0 9.5 0 a4.75 4.75 0 1 0 -9.5 0zM156.75 104.5 a4.75 4.75 0 1 0 9.5 0 a4.75 4.75 0 1 0 -9.5 0zM42.75 161.5 a4.75 4.75 0 1 0 9.5 0 a4.75 4.75 0 1 0 -9.5 0zM251.75 104.5 a4.75 4.75 0 1 0 9.5 0 a4.75 4.75 0 1 0 -9.5 0z" fill="url(&quot;#SvgjsLinearGradient2130&quot;)"></path></g></g><defs><mask id="SvgjsMask2128"><rect width="1440" height="560" fill="#ffffff"></rect></mask><linearGradient x1="15.28%" y1="-39.29%" x2="84.72%" y2="139.29%" gradientUnits="userSpaceOnUse" id="SvgjsLinearGradient2129"><stop stop-color="#0e2a47" offset="0"></stop><stop stop-color="rgba(0, 42, 96, 1)" offset="1"></stop></linearGradient><linearGradient x1="0" y1="280" x2="360" y2="280" gradientUnits="userSpaceOnUse" id="SvgjsLinearGradient2130"><stop stop-color="#3a7cc3" offset="0"></stop><stop stop-color="rgba(255, 0, 42, 1)" offset="1"></stop></linearGradient><mask id="SvgjsMask2131"><rect width="1440" height="560" fill="white"></rect><path d="M178.12 256.5 a2.38 2.38 0 1 0 4.76 0 a2.38 2.38 0 1 0 -4.76 0zM83.12 294.5 a2.38 2.38 0 1 0 4.76 0 a2.38 2.38 0 1 0 -4.76 0zM197.12 275.5 a2.38 2.38 0 1 0 4.76 0 a2.38 2.38 0 1 0 -4.76 0zM197.12 294.5 a2.38 2.38 0 1 0 4.76 0 a2.38 2.38 0 1 0 -4.76 0z" fill="black"></path><path d="M26.12 294.5 a2.38 2.38 0 1 0 4.76 0 a2.38 2.38 0 1 0 -4.76 0z" fill="black"></path><path d="M235.12 237.5 a2.38 2.38 0 1 0 4.76 0 a2.38 2.38 0 1 0 -4.76 0zM216.12 218.5 a2.38 2.38 0 1 0 4.76 0 a2.38 2.38 0 1 0 -4.76 0zM235.12 256.5 a2.38 2.38 0 1 0 4.76 0 a2.38 2.38 0 1 0 -4.76 0z" fill="black"></path><path d="M273.12 313.5 a2.38 2.38 0 1 0 4.76 0 a2.38 2.38 0 1 0 -4.76 0zM83.12 332.5 a2.38 2.38 0 1 0 4.76 0 a2.38 2.38 0 1 0 -4.76 0zM311.12 332.5 a2.38 2.38 0 1 0 4.76 0 a2.38 2.38 0 1 0 -4.76 0zM140.12 351.5 a2.38 2.38 0 1 0 4.76 0 a2.38 2.38 0 1 0 -4.76 0zM311.12 275.5 a2.38 2.38 0 1 0 4.76 0 a2.38 2.38 0 1 0 -4.76 0z" fill="black"></path><path d="M45.12 237.5 a2.38 2.38 0 1 0 4.76 0 a2.38 2.38 0 1 0 -4.76 0zM64.12 218.5 a2.38 2.38 0 1 0 4.76 0 a2.38 2.38 0 1 0 -4.76 0zM26.12 218.5 a2.38 2.38 0 1 0 4.76 0 a2.38 2.38 0 1 0 -4.76 0z" fill="black"></path><path d="M64.12 351.5 a2.38 2.38 0 1 0 4.76 0 a2.38 2.38 0 1 0 -4.76 0zM26.12 351.5 a2.38 2.38 0 1 0 4.76 0 a2.38 2.38 0 1 0 -4.76 0zM64.12 332.5 a2.38 2.38 0 1 0 4.76 0 a2.38 2.38 0 1 0 -4.76 0zM45.12 332.5 a2.38 2.38 0 1 0 4.76 0 a2.38 2.38 0 1 0 -4.76 0z" fill="black"></path><path d="M159.12 199.5 a2.38 2.38 0 1 0 4.76 0 a2.38 2.38 0 1 0 -4.76 0zM140.12 218.5 a2.38 2.38 0 1 0 4.76 0 a2.38 2.38 0 1 0 -4.76 0z" fill="black"></path><path d="M178.12 370.5 a2.38 2.38 0 1 0 4.76 0 a2.38 2.38 0 1 0 -4.76 0zM197.12 389.5 a2.38 2.38 0 1 0 4.76 0 a2.38 2.38 0 1 0 -4.76 0zM216.12 351.5 a2.38 2.38 0 1 0 4.76 0 a2.38 2.38 0 1 0 -4.76 0zM121.12 389.5 a2.38 2.38 0 1 0 4.76 0 a2.38 2.38 0 1 0 -4.76 0z" fill="black"></path><path d="M235.12 218.5 a2.38 2.38 0 1 0 4.76 0 a2.38 2.38 0 1 0 -4.76 0zM235.12 180.5 a2.38 2.38 0 1 0 4.76 0 a2.38 2.38 0 1 0 -4.76 0zM121.12 161.5 a2.38 2.38 0 1 0 4.76 0 a2.38 2.38 0 1 0 -4.76 0zM64.12 161.5 a2.38 2.38 0 1 0 4.76 0 a2.38 2.38 0 1 0 -4.76 0z" fill="black"></path><path d="M83.12 408.5 a2.38 2.38 0 1 0 4.76 0 a2.38 2.38 0 1 0 -4.76 0zM83.12 389.5 a2.38 2.38 0 1 0 4.76 0 a2.38 2.38 0 1 0 -4.76 0z" fill="black"></path><path d="M121.12 427.5 a2.38 2.38 0 1 0 4.76 0 a2.38 2.38 0 1 0 -4.76 0zM26.12 427.5 a2.38 2.38 0 1 0 4.76 0 a2.38 2.38 0 1 0 -4.76 0zM102.12 446.5 a2.38 2.38 0 1 0 4.76 0 a2.38 2.38 0 1 0 -4.76 0zM102.12 465.5 a2.38 2.38 0 1 0 4.76 0 a2.38 2.38 0 1 0 -4.76 0z" fill="black"></path><path d="M197.12 123.5 a2.38 2.38 0 1 0 4.76 0 a2.38 2.38 0 1 0 -4.76 0zM159.12 104.5 a2.38 2.38 0 1 0 4.76 0 a2.38 2.38 0 1 0 -4.76 0zM45.12 161.5 a2.38 2.38 0 1 0 4.76 0 a2.38 2.38 0 1 0 -4.76 0zM254.12 104.5 a2.38 2.38 0 1 0 4.76 0 a2.38 2.38 0 1 0 -4.76 0z" fill="black"></path></mask></defs></svg>